<?xml version="1.0" encoding="UTF-8" standalone="no"?>
<!-- Created with Inkscape (http://www.inkscape.org/) -->

<svg
   xmlns:dc="http://purl.org/dc/elements/1.1/"
   xmlns:cc="http://creativecommons.org/ns#"
   xmlns:rdf="http://www.w3.org/1999/02/22-rdf-syntax-ns#"
   xmlns:svg="http://www.w3.org/2000/svg"
   xmlns="http://www.w3.org/2000/svg"
   xmlns:sodipodi="http://sodipodi.sourceforge.net/DTD/sodipodi-0.dtd"
   xmlns:inkscape="http://www.inkscape.org/namespaces/inkscape"
   version="1.1"
   id="svg2"
   xml:space="preserve"
   width="99.994797"
   height="91.9636"
   viewBox="0 0 99.994797 91.9636"
   sodipodi:docname="portmone.svg"
   inkscape:version="0.92.1 r15371"><metadata
     id="metadata8"><rdf:RDF><cc:Work
         rdf:about=""><dc:format>image/svg+xml</dc:format><dc:type
           rdf:resource="http://purl.org/dc/dcmitype/StillImage" /><dc:title></dc:title></cc:Work></rdf:RDF></metadata><defs
     id="defs6"><clipPath
       clipPathUnits="userSpaceOnUse"
       id="clipPath18"><path
         d="M 0,68.973 H 74.996 V 0 H 0 Z"
         id="path16"
         inkscape:connector-curvature="0" /></clipPath></defs><sodipodi:namedview
     pagecolor="#ffffff"
     bordercolor="#666666"
     borderopacity="1"
     objecttolerance="10"
     gridtolerance="10"
     guidetolerance="10"
     inkscape:pageopacity="0"
     inkscape:pageshadow="2"
     inkscape:window-width="1280"
     inkscape:window-height="961"
     id="namedview4"
     showgrid="false"
     inkscape:zoom="2.5662327"
     inkscape:cx="49.997398"
     inkscape:cy="45.9818"
     inkscape:window-x="-8"
     inkscape:window-y="-8"
     inkscape:window-maximized="1"
     inkscape:current-layer="g10" /><g
     id="g10"
     inkscape:groupmode="layer"
     inkscape:label="Vector Smart Object"
     transform="matrix(1.3333333,0,0,-1.3333333,0,91.9636)"><g
       id="g12"><g
         id="g14"
         clip-path="url(#clipPath18)"><g
           id="g20"
           transform="translate(74.4023,9.0781)"><path
             d="m 0,0 c 0,-4.297 -1.008,-4.215 -5.51,-4.215 h -60.738 c -4.504,0 -8.154,3.485 -8.154,7.781 v 36.526 c 0,4.297 3.65,7.783 8.154,7.783 H -5.945 C -1.441,47.875 0,46.334 0,42.037 Z"
             style="fill:#525252;fill-opacity:1;fill-rule:nonzero;stroke:none"
             id="path22"
             inkscape:connector-curvature="0" /></g><g
           id="g24"
           transform="translate(72.8164,10.375)"><path
             d="m 0,0 c 0,-4.297 -1.236,-4.215 -5.547,-4.215 h -57.879 c -4.31,0 -7.806,3.485 -7.806,7.781 v 33.231 c 0,4.297 3.496,7.781 7.806,7.781 H -5.039 C -0.727,44.578 0,42.607 0,38.311 Z"
             style="fill:#444545;fill-opacity:1;fill-rule:nonzero;stroke:none"
             id="path26"
             inkscape:connector-curvature="0" /></g><g
           id="g28"
           transform="translate(69.9434,50.9121)"><path
             d="m 0,0 -51.225,6.832 -2.955,-22.166 51.225,-6.828 z"
             style="fill:#63bd6e;fill-opacity:1;fill-rule:nonzero;stroke:none"
             id="path30"
             inkscape:connector-curvature="0" /></g><g
           id="g32"
           transform="translate(68.4297,49.5547)"><path
             d="m 0,0 -48.609,6.48 -2.547,-19.099 48.611,-6.479 z m -2.178,-19.678 -49.484,6.598 2.685,20.142 49.485,-6.599 z"
             style="fill:#117f4a;fill-opacity:1;fill-rule:nonzero;stroke:none"
             id="path34"
             inkscape:connector-curvature="0" /></g><g
           id="g36"
           transform="translate(51.5938,42.0801)"><path
             d="m 0,0 c 0.645,4.828 -2.748,9.264 -7.576,9.91 -4.828,0.643 -9.266,-2.75 -9.906,-7.578 -0.647,-4.828 2.746,-9.266 7.576,-9.908 C -5.078,-8.221 -0.643,-4.828 0,0"
             style="fill:#117f4a;fill-opacity:1;fill-rule:nonzero;stroke:none"
             id="path38"
             inkscape:connector-curvature="0" /></g><g
           id="g40"
           transform="translate(42.709,38.5215)"><path
             d="M 0,0 C 0.473,0.004 0.891,0.195 1.25,0.574 1.607,0.951 1.828,1.445 1.91,2.055 1.982,2.578 1.93,3.012 1.758,3.354 1.588,3.699 1.195,4.039 0.586,4.375 Z M 0.619,10.021 C 0.145,9.996 -0.248,9.818 -0.568,9.488 -0.883,9.16 -1.074,8.75 -1.139,8.26 -1.203,7.771 -1.146,7.344 -0.963,6.982 -0.781,6.621 -0.432,6.307 0.088,6.037 Z m -1.678,-12.572 0.194,1.438 c -0.586,0.166 -1.051,0.39 -1.391,0.676 -0.342,0.283 -0.615,0.699 -0.816,1.246 -0.207,0.546 -0.282,1.201 -0.227,1.959 l 1.233,0.099 c -0.012,-0.773 0.078,-1.361 0.265,-1.763 0.264,-0.555 0.633,-0.891 1.094,-1.01 l 0.613,4.572 C -0.57,4.84 -1.043,5.137 -1.516,5.553 -1.863,5.854 -2.107,6.244 -2.25,6.723 -2.395,7.201 -2.428,7.73 -2.352,8.307 c 0.137,1.023 0.545,1.81 1.229,2.361 0.465,0.369 1.1,0.551 1.9,0.543 l 0.092,0.687 0.707,-0.095 -0.094,-0.686 c 0.68,-0.179 1.2,-0.496 1.551,-0.953 C 3.488,9.572 3.711,8.811 3.699,7.883 L 2.432,7.834 C 2.438,8.41 2.348,8.863 2.164,9.191 1.982,9.521 1.701,9.76 1.324,9.91 L 0.771,5.764 C 1.348,5.51 1.727,5.314 1.912,5.18 2.258,4.934 2.527,4.654 2.719,4.34 2.914,4.025 3.049,3.668 3.123,3.264 3.199,2.861 3.207,2.436 3.148,1.99 3.012,0.988 2.641,0.191 2.025,-0.402 1.412,-0.996 0.684,-1.26 -0.156,-1.191 L -0.35,-2.645 Z"
             style="fill:#63bd6e;fill-opacity:1;fill-rule:nonzero;stroke:none"
             id="path42"
             inkscape:connector-curvature="0" /></g><g
           id="g44"
           transform="translate(56.0859,68.9727)"><path
             d="m 0,0 -47.057,-21.365 9.244,-20.36 47.055,21.362 z"
             style="fill:#63bd6e;fill-opacity:1;fill-rule:nonzero;stroke:none"
             id="path46"
             inkscape:connector-curvature="0" /></g><g
           id="g48"
           transform="translate(55.5234,67.0176)"><path
             d="m 0,0 -44.654,-20.271 7.966,-17.547 44.655,20.273 z m 8.586,-17.84 -45.461,-20.637 -8.398,18.502 45.459,20.637 z"
             style="fill:#117f4a;fill-opacity:1;fill-rule:nonzero;stroke:none"
             id="path50"
             inkscape:connector-curvature="0" /></g><g
           id="g52"
           transform="translate(45.2109,51.7559)"><path
             d="m 0,0 c -2.014,4.436 -7.242,6.398 -11.68,4.385 -4.435,-2.014 -6.398,-7.242 -4.382,-11.678 2.013,-4.436 7.242,-6.4 11.677,-4.385 C 0.051,-9.666 2.014,-4.436 0,0"
             style="fill:#117f4a;fill-opacity:1;fill-rule:nonzero;stroke:none"
             id="path54"
             inkscape:connector-curvature="0" /></g><g
           id="g56"
           transform="translate(39.5645,44.0273)"><path
             d="M 0,0 C 0.398,0.252 0.646,0.635 0.752,1.148 0.855,1.658 0.781,2.193 0.525,2.756 0.311,3.236 0.037,3.576 -0.289,3.775 -0.617,3.977 -1.129,4.059 -1.826,4.02 Z M -4.791,8.824 C -5.18,8.551 -5.418,8.191 -5.514,7.746 -5.605,7.299 -5.551,6.85 -5.346,6.4 -5.143,5.949 -4.867,5.619 -4.521,5.408 -4.174,5.199 -3.709,5.117 -3.131,5.164 Z m 5.242,-11.547 -0.597,1.319 c -0.586,-0.17 -1.1,-0.225 -1.538,-0.164 -0.439,0.06 -0.892,0.265 -1.355,0.625 -0.461,0.355 -0.873,0.869 -1.229,1.541 l 0.993,0.74 c 0.402,-0.664 0.789,-1.117 1.16,-1.358 0.519,-0.33 1.008,-0.421 1.465,-0.275 l -1.909,4.199 c -0.494,-0.103 -1.052,-0.103 -1.671,0 -0.456,0.071 -0.87,0.274 -1.245,0.602 -0.375,0.33 -0.685,0.76 -0.925,1.289 -0.426,0.941 -0.496,1.826 -0.211,2.656 0.199,0.561 0.64,1.049 1.324,1.467 l -0.285,0.631 0.648,0.295 0.287,-0.631 c 0.668,0.207 1.278,0.211 1.817,0.014 0.701,-0.262 1.295,-0.789 1.775,-1.584 L -2.092,7.932 c -0.304,0.49 -0.619,0.824 -0.949,1.007 -0.328,0.184 -0.693,0.239 -1.092,0.165 l 1.729,-3.809 c 0.623,0.09 1.049,0.125 1.277,0.109 C -0.705,5.379 -0.326,5.285 0.004,5.119 0.336,4.959 0.637,4.725 0.916,4.424 1.195,4.121 1.426,3.766 1.611,3.354 2.029,2.434 2.135,1.561 1.93,0.732 1.721,-0.098 1.244,-0.707 0.496,-1.094 l 0.606,-1.334 z"
             style="fill:#63bd6e;fill-opacity:1;fill-rule:nonzero;stroke:none"
             id="path58"
             inkscape:connector-curvature="0" /></g><g
           id="g60"
           transform="translate(71,5.5117)"><path
             d="m 0,0 c 0,-4.297 -1.701,-5.512 -5.998,-5.512 h -60.627 c -4.297,0 -4.375,0.405 -4.375,4.701 v 44.038 c 0,0 0.049,1.054 0.102,1.709 0.113,1.478 1.195,2.937 1.195,2.937 0,0 0.648,-2.703 2.484,-3.457 2.877,-1.184 5.11,-1.082 5.11,-1.082 H -5.998 C -1.701,43.334 0,42.77 0,38.473 Z"
             style="fill:#616161;fill-opacity:1;fill-rule:nonzero;stroke:none"
             id="path62"
             inkscape:connector-curvature="0" /></g><g
           id="g64"
           transform="translate(5.1348,45.8984)"><path
             d="m 0,0 v 0 l -4,0.002 c -0.553,0 -1,0.449 -1,1 0,0.553 0.447,1 1,1 L 0,2 C 0.553,2 1,1.553 1,1 1,0.447 0.553,0 0,0"
             style="fill:#717171;fill-opacity:1;fill-rule:nonzero;stroke:none"
             id="path66"
             inkscape:connector-curvature="0" /></g><g
           id="g68"
           transform="translate(21.248,45.8926)"><path
             d="m 0,0 v 0 l -8.057,0.002 c -0.552,0 -1,0.449 -1,1.002 0,0.551 0.448,0.998 1,0.998 L 0,2 C 0.553,2 1,1.551 1,0.998 1,0.447 0.553,0 0,0 m 16.113,-0.008 h -0.002 l -8.056,0.004 c -0.551,0 -1,0.447 -0.998,1 0,0.553 0.447,1 1,1 l 8.056,-0.004 c 0.553,0 1,-0.449 1,-1 -0.002,-0.553 -0.449,-1 -1,-1 m 16.112,-0.008 v 0 l -8.057,0.004 c -0.553,0 -1,0.449 -1,1 0,0.553 0.449,1 1,1 h 0.002 l 8.057,-0.004 c 0.55,0 0.998,-0.447 0.998,-1 0,-0.552 -0.448,-1 -1,-1 m 15.111,-2.343 c -0.424,0 -0.818,0.273 -0.953,0.699 -0.283,0.898 -0.772,1.64 -3.871,1.64 l -2.231,0.002 c -0.552,0 -1,0.448 -1,1 0,0.553 0.448,1 1,1 L 42.512,1.98 c 2.502,0 4.933,-0.367 5.779,-3.037 0.166,-0.527 -0.127,-1.089 -0.652,-1.256 -0.102,-0.031 -0.203,-0.046 -0.303,-0.046 m 0.309,-16.082 c -0.553,0 -1,0.447 -1,1 v 8.056 c 0,0.551 0.447,1 1,1 0.552,0 1,-0.449 1,-1 v -8.056 c 0,-0.553 -0.448,-1 -1,-1 m 0,-16.114 c -0.553,0 -1,0.448 -1,1 v 8.057 c 0,0.553 0.447,1 1,1 0.552,0 1,-0.447 1,-1 v -8.057 c 0,-0.552 -0.448,-1 -1,-1 M 0.039,-44.695 h -8.057 c -0.552,0 -1,0.447 -1,1 0,0.552 0.448,1 1,1 h 8.057 c 0.553,0 1,-0.448 1,-1 0,-0.553 -0.447,-1 -1,-1 m 16.113,0 H 8.096 c -0.553,0 -1,0.447 -1,1 0,0.552 0.447,1 1,1 h 8.056 c 0.551,0 1,-0.448 1,-1 0,-0.553 -0.449,-1 -1,-1 m 16.114,0 h -8.057 c -0.553,0 -1,0.447 -1,1 0,0.552 0.447,1 1,1 h 8.057 c 0.55,0 1,-0.448 1,-1 0,-0.553 -0.45,-1 -1,-1 m 10.029,0 H 40.32 c -0.55,0 -1,0.447 -1,1 0,0.552 0.45,1 1,1 h 1.975 c 3.334,0 3.885,0.291 4.172,1.361 0.142,0.533 0.687,0.854 1.224,0.707 0.534,-0.143 0.852,-0.689 0.707,-1.225 -0.759,-2.843 -3.355,-2.843 -6.103,-2.843"
             style="fill:#717171;fill-opacity:1;fill-rule:nonzero;stroke:none"
             id="path70"
             inkscape:connector-curvature="0" /></g><g
           id="g72"
           transform="translate(5.1348,1.1973)"><path
             d="m 0,0 h -4 c -0.553,0 -1,0.447 -1,1 0,0.553 0.447,1 1,1 H 0 C 0.553,2 1,1.553 1,1 1,0.447 0.553,0 0,0"
             style="fill:#717171;fill-opacity:1;fill-rule:nonzero;stroke:none"
             id="path74"
             inkscape:connector-curvature="0" /></g><g
           id="g76"
           transform="translate(67.1582,7.4121)"><path
             d="M 0,0 C 0,-3.645 -1.281,-3.92 -5.012,-3.92 H -67.051 V 38.301 L -4.812,38.273 C -1.078,38.273 0,37.242 0,33.6 Z"
             style="fill:#616161;fill-opacity:1;fill-rule:nonzero;stroke:none"
             id="path78"
             inkscape:connector-curvature="0" /></g><g
           id="g80"
           transform="translate(74.5371,22.748)"><path
             d="m 0,0 h -19.453 c -1.258,0 -3.606,2.254 -3.606,6.803 0,4.549 2.348,6.674 3.606,6.674 H 0 C 0.646,13.477 0.576,0 0,0"
             style="fill:#727172;fill-opacity:1;fill-rule:nonzero;stroke:none"
             id="path82"
             inkscape:connector-curvature="0" /></g><g
           id="g84"
           transform="translate(74.5371,21.668)"><path
             d="m 0,0 h -19.453 c -1.258,0 -3.606,2.252 -3.606,6.801 0,4.549 2.348,6.676 3.606,6.676 H 0 C 0.646,13.477 0.576,0 0,0"
             style="fill:#575656;fill-opacity:1;fill-rule:nonzero;stroke:none"
             id="path86"
             inkscape:connector-curvature="0" /></g><g
           id="g88"
           transform="translate(60.1387,28.3672)"><path
             d="m 0,0 c 0,-1.641 -1.137,-2.971 -2.539,-2.971 -1.402,0 -2.539,1.33 -2.539,2.971 0,1.643 1.137,2.973 2.539,2.973 C -1.137,2.973 0,1.643 0,0"
             style="fill:#d6cb78;fill-opacity:1;fill-rule:nonzero;stroke:none"
             id="path90"
             inkscape:connector-curvature="0" /></g><g
           id="g92"
           transform="translate(59.6445,28.3672)"><path
             d="m 0,0 c 0,-1.322 -0.914,-2.395 -2.045,-2.395 -1.131,0 -2.045,1.073 -2.045,2.395 0,1.322 0.914,2.396 2.045,2.396 C -0.914,2.396 0,1.322 0,0"
             style="fill:#ece17e;fill-opacity:1;fill-rule:nonzero;stroke:none"
             id="path94"
             inkscape:connector-curvature="0" /></g></g></g></g></svg>