<?xml version="1.0" encoding="UTF-8" standalone="no"?>
<!-- Created with Inkscape (http://www.inkscape.org/) -->

<svg
   xmlns:dc="http://purl.org/dc/elements/1.1/"
   xmlns:cc="http://creativecommons.org/ns#"
   xmlns:rdf="http://www.w3.org/1999/02/22-rdf-syntax-ns#"
   xmlns:svg="http://www.w3.org/2000/svg"
   xmlns="http://www.w3.org/2000/svg"
   xmlns:sodipodi="http://sodipodi.sourceforge.net/DTD/sodipodi-0.dtd"
   xmlns:inkscape="http://www.inkscape.org/namespaces/inkscape"
   version="1.1"
   id="svg2"
   xml:space="preserve"
   width="110.36973"
   height="93.856796"
   viewBox="0 0 110.36973 93.856796"
   sodipodi:docname="sofa.svg"
   inkscape:version="0.92.1 r15371"><metadata
     id="metadata8"><rdf:RDF><cc:Work
         rdf:about=""><dc:format>image/svg+xml</dc:format><dc:type
           rdf:resource="http://purl.org/dc/dcmitype/StillImage" /><dc:title></dc:title></cc:Work></rdf:RDF></metadata><defs
     id="defs6"><clipPath
       clipPathUnits="userSpaceOnUse"
       id="clipPath18"><path
         d="M 0,70.393 H 82.777 V 0 H 0 Z"
         id="path16"
         inkscape:connector-curvature="0" /></clipPath><clipPath
       clipPathUnits="userSpaceOnUse"
       id="clipPath78"><path
         d="m 47.7676,62.9375 h 5.289 v -5.2891 h -5.289 z"
         id="path76"
         inkscape:connector-curvature="0" /></clipPath></defs><sodipodi:namedview
     pagecolor="#ffffff"
     bordercolor="#666666"
     borderopacity="1"
     objecttolerance="10"
     gridtolerance="10"
     guidetolerance="10"
     inkscape:pageopacity="0"
     inkscape:pageshadow="2"
     inkscape:window-width="640"
     inkscape:window-height="480"
     id="namedview4"
     showgrid="false"
     inkscape:zoom="2.514469"
     inkscape:cx="55.184864"
     inkscape:cy="46.928398"
     inkscape:window-x="0"
     inkscape:window-y="0"
     inkscape:window-maximized="0"
     inkscape:current-layer="g10" /><g
     id="g10"
     inkscape:groupmode="layer"
     inkscape:label="Vector Smart Object1"
     transform="matrix(1.3333333,0,0,-1.3333333,0,93.8568)"><g
       id="g12"><g
         id="g14"
         clip-path="url(#clipPath18)"><g
           id="g20"
           transform="translate(11.3379,11.5977)"><path
             d="m 0,0 v -6.596 c 0,-0.519 0.574,-0.939 1.146,-0.939 h 39.475 c 0.76,0 1.24,0.42 1.24,0.939 l 0,6.596 z"
             style="fill:#37919b;fill-opacity:1;fill-rule:nonzero;stroke:none"
             id="path22"
             inkscape:connector-curvature="0" /></g><g
           id="g24"
           transform="translate(50.0898,44.8105)"><path
             d="m 0,0 h -0.385 -34.793 -0.385 c -1.761,0 -3.189,-1.428 -3.189,-3.189 v -24.975 c 0,-1.76 1.428,-3.19 3.189,-3.19 H -35.002 -0.559 0 c 1.762,0 3.189,1.43 3.189,3.19 V -3.189 C 3.189,-1.428 1.762,0 0,0"
             style="fill:#37919b;fill-opacity:1;fill-rule:nonzero;stroke:none"
             id="path26"
             inkscape:connector-curvature="0" /></g><g
           id="g28"
           transform="translate(53.4121,17.1719)"><path
             d="m 0,0 -38.885,0.002 c -1.761,0 -3.189,-0.309 -3.189,-0.688 v -6.601 l 38.367,0.135 3.518,0.193 z"
             style="fill:#2c8484;fill-opacity:1;fill-rule:nonzero;stroke:none"
             id="path30"
             inkscape:connector-curvature="0" /></g><g
           id="g32"
           transform="translate(1.5254,19.0313)"><path
             d="m 0,0 10.387,-2.43 3.24,5.098 c 0,0 3.381,3.478 1.668,7.195 -1.717,3.717 -5.434,3.86 -5.434,3.86 L 0.381,7.098 Z"
             style="fill:#308a8e;fill-opacity:1;fill-rule:nonzero;stroke:none"
             id="path34"
             inkscape:connector-curvature="0" /></g><g
           id="g36"
           transform="translate(53.4102,17.1738)"><path
             d="m 0,0 v 4.525 h -38.258 l -3.24,-5.097 z"
             style="fill:#30898e;fill-opacity:1;fill-rule:nonzero;stroke:none"
             id="path38"
             inkscape:connector-curvature="0" /></g><g
           id="g40"
           transform="translate(12.0059,21.8398)"><path
             d="m 0,0 c 0,3.271 -2.688,5.924 -6.004,5.924 -3.314,0 -6.002,-2.653 -6.002,-5.924 0,-2.549 1.631,-4.715 3.916,-5.555 v -14.609 c 0,-2.234 8.09,-2.234 8.09,0 V -0.43 c 0,0.049 -0.014,0.096 -0.014,0.145 C -0.01,-0.191 0,-0.096 0,0"
             style="fill:#37919b;fill-opacity:1;fill-rule:nonzero;stroke:none"
             id="path42"
             inkscape:connector-curvature="0" /></g><g
           id="g44"
           transform="translate(63.1777,19.0313)"><path
             d="m 0,0 -10.387,-2.43 -3.24,5.098 c 0,0 -3.383,3.478 -1.668,7.195 1.717,3.717 5.432,3.86 5.432,3.86 l 9.482,-6.625 z"
             style="fill:#308a8e;fill-opacity:1;fill-rule:nonzero;stroke:none"
             id="path46"
             inkscape:connector-curvature="0" /></g><g
           id="g48"
           transform="translate(52.6973,21.8398)"><path
             d="m 0,0 c 0,3.271 2.688,5.924 6.002,5.924 3.316,0 6.004,-2.653 6.004,-5.924 0,-2.549 -1.631,-4.715 -3.918,-5.555 v -14.609 c 0,-2.234 -8.088,-2.234 -8.088,0 L 0,-0.43 c 0,0.049 0.014,0.096 0.014,0.145 C 0.01,-0.191 0,-0.096 0,0"
             style="fill:#37919b;fill-opacity:1;fill-rule:nonzero;stroke:none"
             id="path50"
             inkscape:connector-curvature="0" /></g><g
           id="g52"
           transform="translate(82.5957,1.5508)"><path
             d="M 0,0 -8.438,4.52 C -8.553,4.668 -8.732,4.758 -8.924,4.76 -9.107,4.764 -9.295,4.678 -9.412,4.527 l -8.871,-4.572 c -0.151,-0.187 -0.182,-0.445 -0.08,-0.66 0.105,-0.219 0.324,-0.356 0.562,-0.356 h 17.354 0.006 c 0.345,0 0.623,0.278 0.623,0.624 C 0.182,-0.268 0.111,-0.111 0,0"
             style="fill:#6a7872;fill-opacity:1;fill-rule:nonzero;stroke:none"
             id="path54"
             inkscape:connector-curvature="0" /></g><g
           id="g56"
           transform="translate(73.7813,2.7363)"><path
             d="m 0,0 c -0.631,0 -1.143,0.512 -1.143,1.145 v 49.837 c 0.008,0.151 0.424,5.885 -3.193,9.803 -2.312,2.506 -5.807,3.776 -10.387,3.776 -0.631,0 -1.142,0.511 -1.142,1.144 0,0.633 0.511,1.143 1.142,1.143 5.254,0 9.321,-1.524 12.084,-4.532 4.293,-4.67 3.801,-11.156 3.78,-11.431 L 1.145,1.145 C 1.145,0.512 0.633,0 0,0"
             style="fill:#6a7872;fill-opacity:1;fill-rule:nonzero;stroke:none"
             id="path58"
             inkscape:connector-curvature="0" /></g><g
           id="g60"
           transform="translate(73.7813,22.7656)"><path
             d="m 0,0 c -1.094,0 -1.982,-0.887 -1.982,-1.982 v -15.877 c 0.017,-0.262 3.998,-0.309 3.959,0.166 L 1.982,-1.982 C 1.982,-0.887 1.098,0 0,0"
             style="fill:#6a7872;fill-opacity:1;fill-rule:nonzero;stroke:none"
             id="path62"
             inkscape:connector-curvature="0" /></g><g
           id="g64"
           transform="translate(74.8301,3.1426)"><path
             d="m 0,0 c 0,-0.592 -0.48,-1.072 -1.072,-1.072 -0.592,0 -1.073,0.48 -1.073,1.072 0,0.592 0.481,1.072 1.073,1.072 C -0.48,1.072 0,0.592 0,0"
             style="fill:#9dc3c5;fill-opacity:1;fill-rule:nonzero;stroke:none"
             id="path66"
             inkscape:connector-curvature="0" /></g><g
           id="g68"
           transform="translate(74.4648,3.1426)"><path
             d="m 0,0 c 0,-0.391 -0.318,-0.707 -0.707,-0.707 -0.391,0 -0.705,0.316 -0.705,0.707 0,0.391 0.314,0.707 0.705,0.707 C -0.318,0.707 0,0.391 0,0"
             style="fill:#8fb5b6;fill-opacity:1;fill-rule:nonzero;stroke:none"
             id="path70"
             inkscape:connector-curvature="0" /></g><g
           id="g72"><g
             id="g74" /><g
             id="g86"><g
               clip-path="url(#clipPath78)"
               id="g84"
               style="opacity:0.5"><g
                 transform="translate(53.0566,60.293)"
                 id="g82"><path
                   d="m 0,0 c 0,-1.461 -1.184,-2.645 -2.645,-2.645 -1.46,0 -2.644,1.184 -2.644,2.645 0,1.461 1.184,2.645 2.644,2.645 C -1.184,2.645 0,1.461 0,0"
                   style="fill:#aed1d5;fill-opacity:1;fill-rule:nonzero;stroke:none"
                   id="path80"
                   inkscape:connector-curvature="0" /></g></g></g></g><g
           id="g88"
           transform="translate(57.3633,54.6348)"><path
             d="m 0,0 1.658,13.697 c 0.024,0.188 -0.043,0.377 -0.178,0.512 -0.128,0.133 -0.324,0.203 -0.509,0.18 l -14.022,-1.582 c -0.238,-0.028 -0.441,-0.192 -0.519,-0.416 -0.078,-0.229 -0.02,-0.479 0.154,-0.649 l 12.354,-12.183 0.003,-0.004 c 0.247,-0.242 0.639,-0.239 0.881,0.006 C -0.061,-0.316 0.004,-0.156 0,0"
             style="fill:#aed1d5;fill-opacity:1;fill-rule:nonzero;stroke:none"
             id="path90"
             inkscape:connector-curvature="0" /></g><g
           id="g92"
           transform="translate(56.6309,68.3926)"><path
             d="m 0,0 c 0,1.104 0.896,2 2.002,2 1.103,0 2,-0.896 2,-2 0,-1.105 -0.897,-2.002 -2,-2.002 C 0.896,-2.002 0,-1.105 0,0"
             style="fill:#aed1d5;fill-opacity:1;fill-rule:nonzero;stroke:none"
             id="path94"
             inkscape:connector-curvature="0" /></g></g></g></g></svg>